<svg viewBox="0 0 38 50" fill="none" xmlns="http://www.w3.org/2000/svg">
<g clip-path="url(#clip0_380_434)">
<path d="M19 25.0003C19 20.398 23.1405 16.667 28.2481 16.667C33.3557 16.667 37.4963 20.398 37.4963 25.0003C37.4963 29.6027 33.3557 33.3337 28.2481 33.3337C23.1405 33.3337 19 29.6027 19 25.0003Z" fill="#1ABCFE"/>
<path d="M0.503906 41.6663C0.503906 37.064 4.6444 33.333 9.75206 33.333H19.0002V41.6663C19.0002 46.2688 14.8597 49.9997 9.75206 49.9997C4.6444 49.9997 0.503906 46.2688 0.503906 41.6663Z" fill="#0ACF83"/>
<path d="M19 0V16.6666H28.2481C33.3558 16.6666 37.4963 12.9356 37.4963 8.33322C37.4963 3.73081 33.3558 0 28.2481 0H19Z" fill="#FF7262"/>
<path d="M0.503906 8.33333C0.503906 12.9357 4.6444 16.6667 9.75206 16.6667H19.0002V0H9.75206C4.6444 0 0.503906 3.73104 0.503906 8.33333Z" fill="#F24E1E"/>
<path d="M0.503906 25.0003C0.503906 29.6027 4.6444 33.3337 9.75206 33.3337H19.0002V16.667H9.75206C4.6444 16.667 0.503906 20.398 0.503906 25.0003Z" fill="#A259FF"/>
</g>
<defs>
<clipPath id="clip0_380_434">
<rect width="37" height="50" fill="white" transform="translate(0.5)"/>
</clipPath>
</defs>
</svg>
