<svg viewBox="0 0 55 53" fill="none" xmlns="http://www.w3.org/2000/svg">
<rect x="0.892578" width="54" height="53" rx="8" fill="#49021F"/>
<path d="M20.1942 15.7366V38.8587C20.1942 39.1057 20.0813 39.2179 19.8781 39.2179H15.4536C15.2505 39.2179 15.1602 39.1057 15.1602 38.8587V15.7366C15.1602 15.5346 15.273 15.4448 15.4762 15.4448H19.8781C20.0136 15.4224 20.149 15.5122 20.1716 15.6693C20.1942 15.6917 20.1942 15.7142 20.1942 15.7366ZM33.242 39.4873C31.5715 39.5097 29.9011 39.173 28.3886 38.4771C26.9664 37.8261 25.7926 36.7486 24.9799 35.4241C24.1447 34.0547 23.7383 32.3486 23.7383 30.3058C23.7157 28.6446 24.1447 27.0059 24.9799 25.5691C25.8377 24.11 27.0793 22.8978 28.5692 22.0896C30.1494 21.2141 32.0456 20.7876 34.2804 20.7876C34.3933 20.7876 34.5513 20.7876 34.7545 20.81C34.9577 20.8325 35.1834 20.8325 35.4543 20.8549V13.7612C35.4543 13.604 35.522 13.5142 35.68 13.5142H40.2626C40.3754 13.4918 40.4657 13.5816 40.4883 13.6714V35.0874C40.4883 35.4914 40.5109 35.9404 40.5335 36.4343C40.5786 36.9057 40.6012 37.3547 40.6238 37.7363C40.6238 37.8934 40.556 38.0281 40.398 38.0955C39.2242 38.5893 37.9826 38.9485 36.7184 39.173C35.5897 39.375 34.4159 39.4873 33.242 39.4873ZM35.4543 34.9976V25.1202C35.2511 25.0753 35.048 25.0304 34.8448 25.0079C34.5965 24.9855 34.3482 24.963 34.0998 24.963C33.2194 24.963 32.3391 25.1426 31.549 25.5467C30.7814 25.9283 30.1268 26.4895 29.6302 27.2079C29.1335 27.9262 28.8852 28.8915 28.8852 30.0589C28.8626 30.8446 28.9981 31.6303 29.269 32.3711C29.4947 32.9772 29.8333 33.5159 30.2848 33.9649C30.7137 34.369 31.2329 34.6833 31.8199 34.8629C32.4294 35.0649 33.0614 35.1547 33.6935 35.1547C34.0321 35.1547 34.3482 35.1323 34.6416 35.1098C34.9351 35.1323 35.206 35.0874 35.4543 34.9976Z" fill="#FF3366"/>
</svg>
