<svg viewBox="0 0 64 63" fill="none" xmlns="http://www.w3.org/2000/svg">
<path d="M0.746094 0H63.7461V63H0.746094V0Z" fill="#F0DB4F"/>
<path d="M58.59 47.9749C58.1289 45.1004 56.2545 42.687 50.7031 40.4353C48.7747 39.549 46.6248 38.9142 45.9841 37.453C45.7565 36.6026 45.7265 36.1235 45.8703 35.6085C46.2835 33.9377 48.2777 33.4166 49.8587 33.8957C50.8767 34.2371 51.8409 35.0216 52.4218 36.2732C55.1406 34.5126 55.1346 34.5245 57.033 33.3149C56.3383 32.237 55.967 31.7398 55.5119 31.2788C53.877 29.4523 51.6493 28.512 48.0861 28.5839C47.4692 28.6618 46.8465 28.7455 46.2296 28.8235C44.451 29.2726 42.7562 30.2068 41.7621 31.4584C38.7798 34.842 39.6302 40.7647 43.2592 43.2021C46.8344 45.885 52.0864 46.4958 52.7572 49.005C53.4099 52.0772 50.4995 53.0712 47.607 52.7179C45.475 52.2748 44.2893 51.1909 43.0077 49.2206C40.6483 50.586 40.6483 50.586 38.2229 51.9813C38.7978 53.2389 39.4026 53.8079 40.3668 54.8978C44.9301 59.527 56.3503 59.2994 58.3985 52.2928C58.4823 52.0531 59.0333 50.4482 58.59 47.9749ZM34.995 28.9551H29.1022C29.1022 34.0454 29.0783 39.0998 29.0783 44.1901C29.0783 47.43 29.246 50.4003 28.719 51.3106C27.8566 53.1011 25.6229 52.8796 24.6048 52.5322C23.5688 52.0231 23.0418 51.2985 22.431 50.2745C22.2633 49.9811 22.1375 49.7535 22.0956 49.7356C20.4967 50.7117 18.9036 51.6938 17.3047 52.67C18.1012 54.3049 19.2749 55.7242 20.7781 56.6463C23.0238 57.9938 26.042 58.407 29.1981 57.6824C31.2522 57.0835 33.0247 55.8439 33.953 53.9575C35.2944 51.4842 35.007 48.4899 34.995 45.1782C35.0249 39.7765 34.995 34.3748 34.995 28.9551Z" fill="#323330"/>
</svg>
