<svg  viewBox="0 0 69 36" fill="none" xmlns="http://www.w3.org/2000/svg">
<path d="M34.0312 0C24.9643 0 19.2978 4.00008 17.0308 11.9995C20.4313 7.99942 24.398 6.49995 28.931 7.49959C31.5177 8.06996 33.3663 9.72628 35.413 11.559C38.7463 14.5444 42.6042 17.9996 51.0317 17.9996C60.0978 17.9996 65.7651 13.9995 68.0312 5.99937C64.6317 9.99946 60.6649 11.4997 56.131 10.5C53.5452 9.92966 51.6966 8.27334 49.6499 6.44066C46.3167 3.45523 42.4579 0 34.0312 0ZM17.0308 17.9996C7.96473 17.9996 2.29735 21.9997 0.03125 29.9999C3.43082 25.9998 7.39756 24.4996 11.9315 25.5C14.5173 26.0711 16.3659 27.7267 18.4126 29.5586C21.7458 32.544 25.6046 36 34.0312 36C43.0982 36 48.7647 31.9999 51.0317 23.9998C47.6312 27.9998 43.6645 29.5001 39.1315 28.4997C36.5448 27.93 34.6962 26.273 32.6495 24.441C29.3162 21.4556 25.4583 17.9996 17.0308 17.9996Z" fill="#06B6D4"/>
</svg>
