<svg width="24" height="24" viewBox="0 0 24 24" fill="none" xmlns="http://www.w3.org/2000/svg">
<g clip-path="url(#clip0_320_525)">
<path d="M17.2907 5.7107C16.9007 5.3207 16.2707 5.3207 15.8807 5.7107L12.0007 9.5807L8.1107 5.7007C7.7207 5.3107 7.0907 5.3107 6.7007 5.7007C6.3107 6.0907 6.3107 6.7207 6.7007 7.1107L11.2907 11.7007C11.6807 12.0907 12.3107 12.0907 12.7007 11.7007L17.2907 7.1107C17.6807 6.7307 17.6807 6.1007 17.2907 5.7107Z" fill="black"/>
<path d="M17.2905 12.3005C16.9005 11.9105 16.2705 11.9105 15.8805 12.3005L12.0005 16.1705L8.12047 12.2905C7.73047 11.9005 7.10047 11.9005 6.71047 12.2905C6.32047 12.6805 6.32047 13.3105 6.71047 13.7005L11.3005 18.2905C11.6905 18.6805 12.3205 18.6805 12.7105 18.2905L17.3005 13.7005C17.6805 13.3205 17.6805 12.6905 17.2905 12.3005Z" fill="black"/>
</g>
<defs>
<clipPath id="clip0_320_525">
<rect width="24" height="24" fill="white"/>
</clipPath>
</defs>
</svg>
