<svg width="24" height="25" viewBox="0 0 24 25" xmlns="http://www.w3.org/2000/svg">
<path d="M10.9005 2.60047C6.3005 3.10047 2.6005 6.80047 2.1005 11.3005C1.6005 16.0005 4.3005 20.2005 8.4005 21.8005C8.7005 21.9005 9.0005 21.7005 9.0005 21.3005V19.7005C9.0005 19.7005 8.6005 19.8005 8.1005 19.8005C6.7005 19.8005 6.1005 18.6005 6.0005 17.9005C5.9005 17.5005 5.7005 17.2005 5.4005 16.9005C5.1005 16.8005 5.0005 16.8005 5.0005 16.7005C5.0005 16.5005 5.3005 16.5005 5.4005 16.5005C6.0005 16.5005 6.5005 17.2005 6.7005 17.5005C7.2005 18.3005 7.8005 18.5005 8.1005 18.5005C8.5005 18.5005 8.8005 18.4005 9.0005 18.3005C9.1005 17.6005 9.4005 16.9005 10.0005 16.5005C7.7005 16.0005 6.0005 14.7005 6.0005 12.5005C6.0005 11.4005 6.5005 10.3005 7.2005 9.50047C7.1005 9.30047 7.0005 8.80047 7.0005 8.10047C7.0005 7.70047 7.0005 7.20047 7.2005 6.80047C7.2005 6.60047 7.4005 6.50047 7.5005 6.50047H7.6005C8.1005 6.60047 9.1005 6.90047 10.0005 7.80047C10.6005 7.60047 11.3005 7.50047 12.0005 7.50047C12.7005 7.50047 13.4005 7.60047 14.0005 7.80047C14.9005 6.90047 16.0005 6.60047 16.5005 6.50047H16.6005C16.8005 6.50047 16.9005 6.60047 17.0005 6.80047C17.0005 7.20047 17.0005 7.70047 17.0005 8.10047C17.0005 8.90047 16.9005 9.30047 16.8005 9.50047C17.5005 10.3005 18.0005 11.3005 18.0005 12.5005C18.0005 14.7005 16.3005 16.0005 14.0005 16.5005C14.6005 17.0005 15.0005 17.9005 15.0005 18.8005V21.4005C15.0005 21.7005 15.3005 22.0005 15.7005 21.9005C19.4005 20.4005 22.0005 16.8005 22.0005 12.6005C22.0005 6.60047 16.9005 1.90047 10.9005 2.60047Z" fill="#0606B0"/>
</svg>
