<svg width="24" height="25" viewBox="0 0 24 25" fill="none" xmlns="http://www.w3.org/2000/svg">
<g clip-path="url(#clip0_448_1007)">
<path d="M23.3948 7.581C22.9068 7.374 22.3418 7.579 22.1048 8.053C21.8808 8.501 21.5818 8.776 21.1908 8.891C20.5788 9.074 19.8478 8.839 19.5058 8.638C19.0548 8.373 18.5318 7.971 17.9788 7.546C16.2138 6.188 14.0178 4.5 10.9998 4.5C8.5858 4.5 7.3458 5.739 5.2928 7.793C4.9018 8.184 4.8988 8.82 5.2898 9.21C5.6698 9.592 6.2798 9.604 6.6718 9.24C6.6818 9.231 6.6918 9.221 6.7018 9.212C7.2538 8.786 10.7318 9.2 12.2518 10.408C14.5108 12.203 16.1418 13.5 17.9998 13.5C20.6588 13.5 22.8788 11.759 23.9398 8.842C24.1208 8.344 23.8818 7.791 23.3948 7.581ZM18.3948 14.581C17.9068 14.374 17.3418 14.579 17.1048 15.053C16.8808 15.501 16.5818 15.776 16.1908 15.891C15.5788 16.071 14.8478 15.839 14.5058 15.638C14.0548 15.373 13.5318 14.971 12.9788 14.546C11.2138 13.188 9.0178 11.5 5.9998 11.5C3.5858 11.5 2.3458 12.739 0.292801 14.793C-0.0981988 15.184 -0.101199 15.82 0.289801 16.21C0.669801 16.592 1.2808 16.605 1.6728 16.24C1.6828 16.231 1.6928 16.221 1.7028 16.212C2.2538 15.786 5.7338 16.2 7.2528 17.408C9.5108 19.203 11.1418 20.5 12.9998 20.5C15.6588 20.5 17.8788 18.759 18.9398 15.842C19.1208 15.344 18.8818 14.791 18.3948 14.581Z" fill="#0606B0"/>
</g>
<defs>
<clipPath id="clip0_448_1007">
<rect width="24" height="24" fill="white" transform="translate(0 0.5)"/>
</clipPath>
</defs>
</svg>
