<svg width="24" height="24" viewBox="0 0 54 77" fill="none" xmlns="http://www.w3.org/2000/svg">
<g clip-path="url(#clip0_131_489)">
<path d="M47.4039 26.462C51.3489 23.898 53.9684 19.458 53.9684 14.4238C53.9684 6.48174 47.4354 0.0405273 39.4506 0.0405273H14.5178C6.50146 0.0405273 0 6.51301 0 14.4238C0 19.458 2.61952 23.898 6.56458 26.462C2.61952 29.026 0 33.4661 0 38.5002C0 43.5344 2.61952 47.9744 6.56458 50.5384C2.61952 53.1024 0 57.5424 0 62.5766C0 70.5187 6.56458 76.9599 14.6125 76.9599C22.7551 76.9599 29.3828 70.4249 29.3828 62.4202V49.1313C31.9708 51.4452 35.4109 52.8835 39.1666 52.8835H39.4822C47.4985 52.8835 54 46.411 54 38.5002C53.9684 33.4661 51.3489 29.026 47.4039 26.462ZM24.6172 62.4202C24.6172 67.8296 20.1356 72.2697 14.6125 72.2697C9.1841 72.2697 4.76563 67.9234 4.76563 62.5766C4.76563 57.2298 9.15254 52.9148 14.5178 52.8835H24.6172V62.4202ZM24.6172 48.1933H14.5178C9.12098 48.1933 4.76563 43.847 4.76563 38.5002C4.76563 33.1534 9.15254 28.8071 14.5494 28.8071H24.6487V48.1933H24.6172ZM24.6172 24.1169H14.5178C9.12098 24.1169 4.73407 19.7707 4.73407 14.4238C4.73407 9.07699 9.12098 4.73073 14.5178 4.73073H24.6172V24.1169ZM29.3513 4.73073H39.4506C44.8475 4.73073 49.2344 9.07699 49.2344 14.4238C49.2344 19.7707 44.8475 24.1169 39.4506 24.1169H29.3513V4.73073ZM39.4506 48.1933H39.135C33.7382 48.1933 29.3513 43.847 29.3513 38.5002C29.3513 33.1534 33.7382 28.8071 39.135 28.8071H39.4506C44.8475 28.8071 49.2344 33.1534 49.2344 38.5002C49.2344 43.847 44.8475 48.1933 39.4506 48.1933Z" fill="#0606B0"/>
</g>
<defs>
<clipPath id="clip0_131_489">
<rect width="54" height="77" fill="white"/>
</clipPath>
</defs>
</svg>
