<svg width="24" height="24" viewBox="0 0 68 77" fill="none" xmlns="http://www.w3.org/2000/svg">
<path d="M0 0.925234C0 1.43925 1.31168 16.5171 2.93401 34.4393C4.52183 52.3271 5.90254 67.5078 5.93706 68.1589L6.04061 69.324L20.0203 73.162L33.9655 77L36.7614 76.2461C38.2802 75.8349 44.5279 74.1215 50.6721 72.4424C60.199 69.838 61.8213 69.2897 61.9594 68.7072C62.132 67.8847 68 1.85047 68 0.753894V0H0V0.925234ZM55.4701 15.4891C55.332 16.3115 54.4345 26.0436 53.468 37.1807C52.467 48.2835 51.6386 57.4673 51.5695 57.5358C51.4315 57.7072 34.4832 62.3676 34 62.3676C33.6548 62.3676 24.4041 59.866 18.0873 58.0841L16.3269 57.5701L15.9127 53.0467C15.7056 50.5452 15.4294 47.5296 15.2914 46.3302L15.0843 44.2056H19.399C24.266 44.2056 24.1279 44.1371 24.1624 47.1184C24.1624 47.8723 24.266 49.0374 24.3695 49.7227L24.5766 50.9564L29.3056 52.19L34 53.4237L38.6599 52.19C41.2142 51.5047 43.3543 50.9221 43.3543 50.9221C43.3888 50.8879 43.5959 48.866 43.803 46.433C44.0102 43.9657 44.2518 41.567 44.3553 41.0187L44.5279 40.0935H14.9117L14.7391 39.3053C14.6355 38.8941 14.4284 36.9065 14.2904 34.8505L14.0487 31.1838H45.1492L45.3563 28.8536C45.4944 27.5857 45.7015 25.6324 45.8051 24.5358C45.9431 23.1308 45.9086 22.5826 45.6325 22.7539C45.4254 22.8567 38.0731 22.8567 29.2365 22.7196L13.1858 22.514L12.9787 20.081C12.8406 18.7445 12.668 16.8255 12.5645 15.8318L12.3574 14.0498H55.6426L55.4701 15.4891Z" fill="#0606B0"/>
<path d="M55.4701 15.4891C55.332 16.3115 54.4345 26.0436 53.468 37.1807C52.467 48.2835 51.6386 57.4673 51.5695 57.5358C51.4315 57.7072 34.4832 62.3676 34 62.3676C33.6548 62.3676 24.4041 59.866 18.0873 58.0841L16.3269 57.5701L15.9127 53.0467C15.7056 50.5452 15.4294 47.5296 15.2914 46.3302L15.0843 44.2056H19.399C24.266 44.2056 24.1279 44.1371 24.1624 47.1184C24.1624 47.8723 24.266 49.0374 24.3695 49.7227L24.5766 50.9564L29.3056 52.19L34 53.4237L38.6599 52.19C41.2142 51.5047 43.3543 50.9221 43.3543 50.9221C43.3888 50.8879 43.5959 48.866 43.803 46.433C44.0102 43.9657 44.2518 41.567 44.3553 41.0187L44.5279 40.0935H14.9117L14.7391 39.3053C14.6355 38.8941 14.4284 36.9065 14.2904 34.8505L14.0487 31.1838H45.1492L45.3563 28.8536C45.4944 27.5857 45.7015 25.6324 45.8051 24.5358C45.9431 23.1308 45.9086 22.5826 45.6325 22.7539C45.4254 22.8567 38.0731 22.8567 29.2365 22.7196L13.1858 22.514L12.9787 20.081C12.8406 18.7445 12.668 16.8255 12.5645 15.8318L12.3574 14.0498H55.6426L55.4701 15.4891Z" fill="white"/>
</svg>
