<svg width="24" height="24" viewBox="0 0 24 24" fill="none" xmlns="http://www.w3.org/2000/svg">
<g clip-path="url(#clip0_320_532)">
<path d="M18.6109 9.45455C18.7745 9.92909 19.2327 10.2727 19.7727 10.2727C20.4436 10.2727 21 9.71636 21 9.04545V8.63636C21 7.73636 20.2636 7 19.3636 7H14.4545C13.5545 7 12.8182 7.73636 12.8182 8.63636V11.0909C12.8182 11.9909 13.5545 12.7273 14.4545 12.7273H18.5455V14.3636H15.2073C15.0436 13.8891 14.5855 13.5455 14.0455 13.5455C13.3745 13.5455 12.8182 14.1018 12.8182 14.7727V15.1818C12.8182 16.0818 13.5545 16.8182 14.4545 16.8182H19.3636C20.2636 16.8182 21 16.0818 21 15.1818V12.7273C21 11.8273 20.2636 11.0909 19.3636 11.0909H15.2727V9.45455H18.6109ZM5.45455 14.3636H7.90909V8.22727C7.90909 7.55636 8.46545 7 9.13636 7C9.80727 7 10.3636 7.55636 10.3636 8.22727V14.3636C10.3636 15.7218 9.26727 16.8182 7.90909 16.8182H5.45455C4.09636 16.8182 3 15.7218 3 14.3636V13.9545C3 13.2836 3.55636 12.7273 4.22727 12.7273C4.89818 12.7273 5.45455 13.2836 5.45455 13.9545V14.3636Z" fill="black"/>
</g>
<defs>
<clipPath id="clip0_320_532">
<rect width="24" height="24" fill="white"/>
</clipPath>
</defs>
</svg>
