<svg width="24" height="25" viewBox="0 0 24 25" fill="none" xmlns="http://www.w3.org/2000/svg">
<path d="M19.2497 8.9713C19.01 8.88943 18.7686 8.81318 18.5255 8.74255C18.5658 8.57849 18.603 8.41349 18.637 8.24755C19.1855 5.58037 18.8269 3.43162 17.603 2.72427C16.4311 2.04552 14.5092 2.75287 12.5705 4.44412C12.3798 4.61099 12.1931 4.78287 12.0103 4.95974C11.8884 4.84224 11.7634 4.72724 11.6353 4.61474C9.60328 2.8063 7.56656 2.04459 6.34406 2.75427C5.17219 3.43443 4.82391 5.45427 5.3175 7.98224C5.36688 8.23224 5.42234 8.48115 5.48391 8.72896C5.19562 8.81099 4.91719 8.89865 4.65094 8.99146C2.27156 9.82349 0.75 11.128 0.75 12.4808C0.75 13.8786 2.38312 15.2802 4.86422 16.1301C5.06547 16.1985 5.26859 16.2621 5.47359 16.3208C5.40703 16.5861 5.34812 16.8544 5.29688 17.1257C4.82812 19.6101 5.19375 21.5821 6.36328 22.258C7.57125 22.956 9.59766 22.2388 11.573 20.5091C11.7292 20.3722 11.8855 20.2277 12.0417 20.0755C12.2392 20.2665 12.4423 20.4518 12.6511 20.6315C14.5636 22.2805 16.4522 22.9466 17.6198 22.2688C18.8269 21.5685 19.2192 19.4497 18.7097 16.8721C18.6706 16.6752 18.6256 16.4743 18.5747 16.2693C18.7172 16.2271 18.8567 16.1835 18.9933 16.1385C21.5714 15.2821 23.2509 13.8974 23.2509 12.4822C23.25 11.1229 21.6797 9.8099 19.2497 8.9713ZM13.2028 5.17068C14.8636 3.72177 16.4161 3.1499 17.1239 3.55865C17.8772 3.99412 18.1702 5.75005 17.6967 8.05302C17.6655 8.20302 17.6317 8.35255 17.5955 8.50162C16.6044 8.27618 15.5993 8.11708 14.587 8.02537C14.0074 7.19046 13.3721 6.39569 12.6853 5.64646C12.8534 5.48334 13.0256 5.32474 13.2019 5.17068H13.2028ZM7.39359 13.6368C7.59703 14.0305 7.80969 14.4194 8.03156 14.8035C8.2575 15.1954 8.49297 15.5815 8.73797 15.9618C8.04144 15.886 7.34927 15.7745 6.66422 15.6276C6.86297 14.9844 7.10766 14.3165 7.39359 13.6368ZM7.39359 11.3713C7.11234 10.7061 6.87422 10.0518 6.67875 9.4199C7.32094 9.27599 8.00531 9.15834 8.71875 9.06927C8.47969 9.4424 8.24969 9.82099 8.02875 10.2051C7.80781 10.5891 7.59562 10.9779 7.39219 11.3713H7.39359ZM7.90453 12.5043C8.20078 11.8865 8.51984 11.2805 8.86172 10.6865C9.20328 10.0927 9.56688 9.51255 9.9525 8.94599C10.6219 8.89537 11.3081 8.86865 12.0014 8.86865C12.6947 8.86865 13.3852 8.89537 14.0541 8.94646C14.4356 9.51177 14.797 10.0899 15.1383 10.6808C15.4795 11.2718 15.8028 11.8749 16.1081 12.4902C15.8069 13.1102 15.4844 13.7186 15.1406 14.3155C14.7997 14.9093 14.4403 15.4911 14.0625 16.0611C13.3945 16.108 12.7031 16.1338 12 16.1338C11.2969 16.1338 10.6186 16.1118 9.96281 16.0691C9.57438 15.5007 9.20781 14.918 8.86312 14.3211C8.51844 13.7243 8.19844 13.1186 7.90313 12.5043H7.90453ZM15.9727 14.7969C16.1992 14.4038 16.4167 14.0055 16.6252 13.6021C16.9109 14.2499 17.1631 14.9121 17.3808 15.5858C16.6877 15.7419 15.9869 15.8616 15.2812 15.9444C15.5194 15.5666 15.7498 15.1841 15.9727 14.7969ZM16.6158 11.3718C16.4083 10.9765 16.1925 10.5858 15.9684 10.1999C15.7497 9.81927 15.5217 9.44334 15.2845 9.07209C16.0022 9.16302 16.6908 9.28396 17.3363 9.43162C17.1287 10.09 16.8883 10.7375 16.6158 11.3718ZM12.0108 6.33505C12.4789 6.84651 12.9208 7.38125 13.335 7.93724C12.4491 7.89505 11.5625 7.89505 10.6753 7.93724C11.1127 7.3588 11.5603 6.82209 12.0108 6.33505ZM6.82781 3.58724C7.58063 3.15037 9.24516 3.77474 10.9997 5.33427C11.1117 5.43412 11.2247 5.53865 11.3372 5.64693C10.6469 6.39605 10.007 7.19013 9.42188 8.02396C8.41184 8.11497 7.40878 8.27155 6.41906 8.49271C6.36188 8.26271 6.31031 8.03115 6.26437 7.79802C5.84016 5.63099 6.12094 3.9974 6.82781 3.58724ZM5.73047 15.3927C5.54297 15.3393 5.35781 15.2813 5.175 15.2188C4.07812 14.8438 3.17203 14.3544 2.55 13.8215C1.99313 13.3438 1.71094 12.8671 1.71094 12.4808C1.71094 11.6601 2.9325 10.6129 4.96969 9.90271C5.22563 9.81365 5.48375 9.73224 5.74406 9.65849C6.04662 10.6308 6.41304 11.5821 6.84094 12.5061C6.40794 13.443 6.03698 14.4072 5.73047 15.3927ZM10.9397 19.7835C10.0664 20.5485 9.19172 21.0908 8.42062 21.3641C7.72781 21.6093 7.17609 21.6163 6.84281 21.4236C6.13312 21.0135 5.83781 19.4296 6.24047 17.3052C6.28828 17.0552 6.34297 16.8052 6.40453 16.5552C7.40416 16.7705 8.41728 16.9176 9.43688 16.9954C10.0278 17.8335 10.6729 18.6321 11.3681 19.386C11.2284 19.5233 11.0855 19.6555 10.9397 19.7835ZM12.0375 18.6951C11.5819 18.2024 11.1272 17.6572 10.6838 17.0713C11.1147 17.0882 11.5534 17.0966 12 17.0966C12.4584 17.0966 12.9122 17.0868 13.3594 17.0666C12.9467 17.6315 12.5055 18.175 12.0375 18.6951ZM17.8744 20.0352C17.7403 20.759 17.4708 21.2418 17.1375 21.4349C16.4283 21.8465 14.9119 21.3116 13.2769 19.9011C13.0894 19.7399 12.9019 19.5669 12.7111 19.3855C13.3928 18.6287 14.0228 17.8269 14.5969 16.9855C15.6221 16.8987 16.6402 16.7413 17.6437 16.5144C17.6897 16.7001 17.7303 16.8819 17.7656 17.0601C17.9911 18.1991 18.0234 19.2294 17.8744 20.0352ZM18.69 15.224C18.5672 15.2647 18.4406 15.3041 18.3122 15.3426C17.9975 14.3657 17.6168 13.4113 17.1727 12.486C17.6001 11.5731 17.9659 10.6325 18.2677 9.67068C18.4978 9.73771 18.7214 9.80802 18.9366 9.88255C21.0188 10.6007 22.2891 11.6638 22.2891 12.4808C22.2891 13.3527 20.917 14.4843 18.69 15.224Z" fill="#0606B0"/>
<path d="M11.9993 14.4941C12.3982 14.4954 12.7886 14.3783 13.1209 14.1576C13.4532 13.9369 13.7126 13.6226 13.8662 13.2544C14.0197 12.8862 14.0606 12.4807 13.9836 12.0893C13.9065 11.6979 13.7151 11.3381 13.4334 11.0556C13.1518 10.773 12.7927 10.5804 12.4015 10.5021C12.0103 10.4238 11.6047 10.4633 11.236 10.6157C10.8674 10.7681 10.5522 11.0264 10.3304 11.358C10.1086 11.6896 9.99024 12.0796 9.99024 12.4785C9.98968 12.7428 10.0412 13.0046 10.1419 13.249C10.2426 13.4934 10.3905 13.7155 10.577 13.9027C10.7636 14.0899 10.9853 14.2385 11.2293 14.3399C11.4734 14.4414 11.735 14.4938 11.9993 14.4941Z" fill="#0606B0"/>
</svg>
