<svg viewBox="0 0 54 45" fill="none" xmlns="http://www.w3.org/2000/svg">
<path d="M53.7811 22.5051C53.7811 19.1577 49.3316 15.9854 42.5098 14.0181C44.084 7.46738 43.3843 2.25566 40.3014 0.58709C39.5908 0.195697 38.7599 0.0102997 37.8525 0.0102997V2.30716C38.3554 2.30716 38.7599 2.39986 39.0988 2.57496C40.5856 3.37835 41.2307 6.4374 40.7278 10.3719C40.6075 11.3401 40.4107 12.3598 40.1702 13.4001C38.0274 12.9057 35.6879 12.5246 33.2281 12.2774C31.7522 10.3719 30.2217 8.64156 28.6802 7.12749C32.2442 4.00664 35.5895 2.29686 37.8635 2.29686V0C34.857 0 30.9213 2.01877 26.9419 5.52071C22.9625 2.03937 19.0268 0.0411995 16.0204 0.0411995V2.33806C18.2834 2.33806 21.6397 4.03754 25.2037 7.13779C23.6731 8.65187 22.1426 10.3719 20.6886 12.2774C18.2178 12.5246 15.8783 12.9057 13.7355 13.4104C13.4841 12.3804 13.2982 11.3813 13.167 10.4234C12.6532 6.4889 13.2873 3.42985 14.7632 2.61616C15.0912 2.43076 15.5175 2.34836 16.0204 2.34836V0.0514992C15.1021 0.0514992 14.2712 0.236896 13.5497 0.62829C10.4777 2.29686 9.78891 7.49828 11.3741 14.0284C4.57413 16.0059 0.146484 19.168 0.146484 22.5051C0.146484 25.8526 4.59599 29.0249 11.4178 30.9922C9.84357 37.5429 10.5433 42.7546 13.6262 44.4232C14.3368 44.8146 15.1677 45 16.086 45C19.0924 45 23.0281 42.9812 27.0075 39.4793C30.9869 42.9606 34.9226 44.9588 37.9291 44.9588C38.8474 44.9588 39.6782 44.7734 40.3998 44.382C43.4718 42.7134 44.1606 37.512 42.5753 30.9819C49.3535 29.0146 53.7811 25.8423 53.7811 22.5051ZM39.5471 15.6352C39.1426 16.9638 38.6397 18.3337 38.0712 19.7036C37.6229 18.8796 37.1528 18.0556 36.639 17.2316C36.1361 16.4076 35.6004 15.6043 35.0648 14.8215C36.6172 15.0378 38.1149 15.3056 39.5471 15.6352ZM34.54 26.6045C33.6873 27.995 32.8127 29.3133 31.9053 30.539C30.2763 30.6729 28.6255 30.745 26.9638 30.745C25.313 30.745 23.6622 30.6729 22.0442 30.5493C21.1368 29.3236 20.2513 28.0156 19.3985 26.6354C18.5677 25.2861 17.8133 23.9162 17.1246 22.536C17.8024 21.1559 18.5677 19.7757 19.3876 18.4264C20.2403 17.0359 21.1149 15.7176 22.0223 14.4919C23.6513 14.358 25.3021 14.2859 26.9638 14.2859C28.6146 14.2859 30.2654 14.358 31.8834 14.4816C32.7908 15.7073 33.6763 17.0153 34.5291 18.3955C35.3599 19.7448 36.1143 21.1147 36.803 22.4948C36.1143 23.875 35.3599 25.2552 34.54 26.6045ZM38.0712 25.2655C38.6615 26.6457 39.1644 28.0259 39.5799 29.3648C38.1477 29.6944 36.639 29.9725 35.0757 30.1888C35.6114 29.3957 36.1471 28.5821 36.65 27.7478C37.1529 26.9238 37.6229 26.0895 38.0712 25.2655ZM26.9857 36.2554C25.9689 35.2666 24.9522 34.1646 23.9464 32.9595C24.9304 33.0007 25.9361 33.0316 26.9529 33.0316C27.9805 33.0316 28.9972 33.011 29.9921 32.9595C29.0082 34.1646 27.9915 35.2666 26.9857 36.2554ZM18.8519 30.1888C17.2995 29.9725 15.8018 29.7047 14.3696 29.3751C14.7741 28.0465 15.277 26.6766 15.8455 25.3067C16.2937 26.1307 16.7638 26.9547 17.2776 27.7787C17.7915 28.6027 18.3162 29.406 18.8519 30.1888ZM26.931 8.75486C27.9477 9.74365 28.9644 10.8457 29.9702 12.0508C28.9863 12.0096 27.9805 11.9787 26.9638 11.9787C25.9361 11.9787 24.9194 11.9993 23.9246 12.0508C24.9085 10.8457 25.9252 9.74365 26.931 8.75486ZM18.841 14.8215C18.3053 15.6146 17.7696 16.4282 17.2667 17.2625C16.7638 18.0865 16.2937 18.9105 15.8455 19.7345C15.2551 18.3543 14.7522 16.9741 14.3368 15.6352C15.769 15.3159 17.2776 15.0378 18.841 14.8215ZM8.94711 27.7169C5.07702 26.1616 2.57349 24.1222 2.57349 22.5051C2.57349 20.8881 5.07702 18.8384 8.94711 17.2934C9.88731 16.9123 10.915 16.5724 11.9754 16.2531C12.5986 18.2719 13.4185 20.3731 14.4352 22.5257C13.4294 24.6681 12.6204 26.759 12.0082 28.7674C10.9259 28.4482 9.89824 28.098 8.94711 27.7169ZM14.8288 42.4353C13.342 41.632 12.6969 38.5729 13.1998 34.6384C13.3201 33.6702 13.5169 32.6505 13.7574 31.6102C15.9002 32.1046 18.2397 32.4857 20.6995 32.7329C22.1754 34.6384 23.7059 36.3687 25.2474 37.8828C21.6834 41.0037 18.3381 42.7134 16.0641 42.7134C15.5722 42.7031 15.1567 42.6104 14.8288 42.4353ZM40.7606 34.5869C41.2744 38.5214 40.6403 41.5805 39.1644 42.3941C38.8364 42.5795 38.4101 42.6619 37.9072 42.6619C35.6442 42.6619 32.2879 40.9625 28.7239 37.8622C30.2545 36.3481 31.785 34.6281 33.239 32.7226C35.7098 32.4754 38.0493 32.0943 40.1921 31.5896C40.4435 32.6299 40.6403 33.629 40.7606 34.5869ZM44.9696 27.7169C44.0294 28.098 43.0017 28.4379 41.9413 28.7572C41.3181 26.7384 40.4982 24.6372 39.4815 22.4845C40.4872 20.3422 41.2963 18.2513 41.9085 16.2428C42.9908 16.5621 44.0184 16.9123 44.9805 17.2934C48.8506 18.8487 51.3541 20.8881 51.3541 22.5051C51.3432 24.1222 48.8396 26.1719 44.9696 27.7169Z" fill="#61DAFB"/>
</svg>
